<svg width="63" height="67" viewBox="0 0 63 67" fill="none" xmlns="http://www.w3.org/2000/svg">
<path d="M47.1282 35.9337C45.3956 35.8675 43.7565 35.7136 42.2403 35.5132C42.5753 35.7024 42.8979 35.9001 43.1869 36.1065C44.7492 37.2913 45.4165 38.6068 45.6664 39.6953C45.9275 40.807 45.8661 41.7983 45.6916 42.708C45.612 43.1499 45.4947 43.5652 45.3649 43.9883C45.3551 44.0175 45.3439 44.0476 45.3313 44.0769C45.147 44.5016 44.9642 44.922 44.7841 45.3364C43.9548 47.0053 42.7834 48.3707 41.8256 49.4231C40.5845 50.8271 39.4173 52.0653 38.7751 53.3936C38.5768 53.7272 38.521 54.066 38.3772 54.409L38.1929 54.9318L38.0924 55.5062C37.9304 56.2748 37.8788 57.0478 37.8202 57.8345C37.7797 59.3839 37.9472 60.9608 38.3995 62.5488C38.8561 64.0088 39.8278 65.6682 40.752 67C39.2805 65.8728 37.8788 64.2658 36.8666 62.8403C35.8125 61.2901 34.9958 59.684 34.3815 58.0529C34.1106 57.2266 33.8272 56.3978 33.6568 55.562L33.5201 54.9868C33.5117 54.9516 33.5061 54.9155 33.5033 54.8794L33.4516 54.2586C33.4349 53.8081 33.3441 53.3403 33.4014 52.8906C33.4907 51.0464 34.2655 49.3096 34.8785 47.7482C35.3922 46.5341 35.8516 45.3313 36.0401 44.1628C36.068 43.8885 36.1029 43.6143 36.1476 43.3408C36.1518 43.3142 36.1545 43.2875 36.1545 43.26C36.1615 42.9694 36.1685 42.6642 36.1448 42.3779C36.1183 41.7743 36.001 41.2145 35.8181 40.8027C35.652 40.3685 35.3811 40.1863 35.356 40.1716C35.3309 40.1854 35.3588 40.1673 35.342 40.1802C35.3378 40.1819 35.349 40.1785 35.342 40.1742C35.3211 40.1725 35.3057 40.169 35.2889 40.1613C35.2778 40.1372 35.1828 40.1458 35.1465 40.1209C35.1242 40.1114 35.1004 40.0968 35.0781 40.0805C35.0711 40.0856 35.0739 40.0917 35.0711 40.0899C35.0823 40.0659 35.0572 40.01 34.9692 39.9764C34.8673 39.9481 34.6425 39.979 34.4555 39.9988C34.4555 39.9988 34.3535 40.0057 34.1972 40.0152C34.0785 40.0289 33.7155 40.0289 33.5201 40.2275C33.4907 40.2525 33.4405 40.2834 33.4153 40.3169L33.3762 40.4192C33.3497 40.4932 33.2994 40.5834 33.2743 40.684C33.3078 40.8689 33.2897 41.1071 33.3316 41.3487C33.4614 41.8095 33.5298 42.3564 33.1766 42.8353C32.7829 43.3004 31.9787 43.5214 30.8171 43.4991C30.2936 43.4707 29.7086 43.34 29.0901 43.1671C28.9924 43.1396 28.8974 43.1087 28.8067 43.0726C28.5302 42.9599 28.2553 42.8215 27.9788 42.6779C27.8169 42.5937 27.6577 42.5042 27.5013 42.4122C27.4413 42.371 27.3826 42.3263 27.3268 42.2807C26.7934 41.8465 26.3551 41.3711 26.08 40.8526C26.0256 40.7486 25.974 40.6445 25.9251 40.5405C25.7841 40.2688 25.7841 40.0031 25.7394 39.7452C25.7143 39.4872 25.6808 39.2344 25.7366 39.0212C25.8246 38.5896 25.9111 38.2053 26.0493 37.974C26.1876 37.7358 26.2658 37.6 26.2658 37.6C27.0001 36.4255 28.3572 35.3765 30.2992 34.6508C31.4649 34.2158 32.8275 33.9441 34.2418 33.8555C33.5116 33.6423 33.1012 33.4996 33.1012 33.4996C33.1012 33.4996 33.513 33.3568 34.2418 33.1427C32.8275 33.0542 31.4663 32.7825 30.2992 32.3474C28.3586 31.6235 27.0001 30.5745 26.2658 29.3983C26.2658 29.3983 26.1889 29.2625 26.0493 29.0243C25.9111 28.793 25.8246 28.4087 25.7366 27.9771C25.6794 27.7647 25.7143 27.5111 25.7394 27.2548C25.7841 26.996 25.7841 26.7312 25.9251 26.4595C25.9684 26.3641 26.0159 26.2687 26.0661 26.1732C26.3467 25.635 26.7977 25.138 27.3603 24.6909C27.4064 24.6548 27.4524 24.6196 27.5013 24.586C27.6577 24.494 27.8169 24.4037 27.9788 24.3203C28.2553 24.1767 28.5288 24.0383 28.8067 23.9257C28.896 23.8896 28.9924 23.8586 29.0901 23.8311C29.7086 23.6583 30.2922 23.5276 30.8171 23.4992C31.9787 23.4777 32.7843 23.6978 33.1766 24.163C33.5284 24.6419 33.4614 25.1905 33.3316 25.6496C33.2911 25.8929 33.3092 26.1302 33.2743 26.3151C33.2994 26.4157 33.3497 26.5051 33.3762 26.5799L33.4153 26.6839C33.4405 26.7158 33.4907 26.7467 33.5201 26.7716C33.7155 26.972 34.0799 26.972 34.1972 26.9848C34.3535 26.996 34.4555 27.0029 34.4555 27.0029C34.6425 27.0227 34.8673 27.0519 34.9692 27.0235C35.0586 26.99 35.0823 26.9341 35.0711 26.9101C35.0739 26.9083 35.0711 26.9144 35.0781 26.9195C35.1004 26.9032 35.1228 26.8903 35.1465 26.8808C35.1828 26.8542 35.2778 26.8628 35.2889 26.8404C35.3043 26.8318 35.3211 26.8275 35.342 26.8267C35.349 26.8224 35.3378 26.8198 35.342 26.8224C35.3574 26.8336 35.3309 26.8155 35.356 26.8293C35.3811 26.8155 35.652 26.6315 35.8181 26.199C36.0024 25.7871 36.1183 25.2257 36.1448 24.6221C36.1685 24.3358 36.1615 24.0314 36.1545 23.7408C36.1545 23.7133 36.1518 23.6867 36.1476 23.66C36.1029 23.3866 36.0694 23.1115 36.0401 22.838C35.8516 21.6678 35.3922 20.4667 34.8785 19.2509C34.2642 17.6913 33.4893 15.9519 33.4014 14.1085C33.3441 13.6588 33.4349 13.1928 33.4516 12.7423L33.5033 12.1198C33.5061 12.0836 33.5117 12.0475 33.5214 12.0123L33.6583 11.4388C33.8286 10.6031 34.1134 9.77252 34.3828 8.94625C34.9971 7.31521 35.8125 5.71084 36.868 4.16062C37.8802 2.73421 39.2819 1.12634 40.7534 0C39.8278 1.33269 38.8574 2.99042 38.4009 4.45208C37.9486 6.03841 37.7797 7.61525 37.8215 9.16461C37.8802 9.95133 37.9332 10.7243 38.0938 11.493L38.1943 12.0673L38.3786 12.5892C38.5224 12.934 38.5783 13.2727 38.7765 13.6046C39.4201 14.9339 40.5859 16.1729 41.8271 17.5752C42.7848 18.6293 43.9547 19.9947 44.7854 21.6618C44.9655 22.0771 45.1485 22.4984 45.3328 22.9232C45.3453 22.9524 45.3565 22.9816 45.3649 23.0108C45.4961 23.4321 45.6134 23.8474 45.6916 24.2894C45.8661 25.1999 45.9275 26.1904 45.6664 27.3021C45.4165 28.3898 44.7478 29.7061 43.1869 30.8918C42.8979 31.0973 42.5753 31.2951 42.2403 31.4842C43.7565 31.2839 45.3956 31.13 47.1282 31.0638C47.7188 31.0414 48.3191 31.0277 48.9292 31.0277C49.5253 31.0277 50.1131 31.0414 50.6939 31.0629C54.7245 31.2117 58.3 31.841 60.8368 32.4231C62.4479 32.7928 62.4479 34.2029 60.8368 34.5718C58.3 35.153 54.7245 35.7824 50.6939 35.9311C50.1145 35.9535 49.5253 35.9663 48.9292 35.9663C48.3191 35.9698 47.7188 35.956 47.1282 35.9337Z" fill="white"/>
<path d="M15.881 37.5286C15.176 38.1614 13.7226 38.225 12.9031 37.6472C12.5834 37.4211 12.2553 37.2062 11.9356 37.023C8.47038 35.2011 0.0153747 33.5357 1.72041e-05 33.4488C-0.0139441 33.3706 8.47317 31.7181 11.9356 29.8979C12.2357 29.725 12.5443 29.5247 12.8473 29.3132C13.6766 28.7337 15.1704 28.7913 15.8349 29.4464C18.3298 31.9132 25.9667 33.423 25.9667 33.4841C25.9667 33.5451 18.4485 35.2226 15.881 37.5286Z" fill="white"/>
</svg>
